<mxfile host="app.diagrams.net" agent="Mozilla/5.0 (Windows NT 10.0; Win64; x64) AppleWebKit/537.36 (KHTML, like Gecko) Chrome/128.0.0.0 Safari/537.36 Edg/128.0.0.0" version="24.7.12">
  <diagram name="ClassDiagram" id="0">
    <mxGraphModel dx="1365" dy="741" grid="1" gridSize="10" guides="1" tooltips="1" connect="1" arrows="1" fold="1" page="1" pageScale="1" pageWidth="827" pageHeight="1169" math="0" shadow="0">
      <root>
        <mxCell id="0" />
        <mxCell id="1" parent="0" />
        <mxCell id="Pais" value="&lt;b&gt;Pais&lt;/b&gt;&lt;br&gt;- id: Integer&lt;br&gt;- nombre: String(100)&lt;br&gt;&lt;i&gt;1 a muchos con Region&lt;/i&gt;&lt;br&gt;" style="rounded=1;whiteSpace=wrap;html=1;" parent="1" vertex="1">
          <mxGeometry x="640" y="60" width="160" height="100" as="geometry" />
        </mxCell>
        <mxCell id="Region" value="&lt;b&gt;Region&lt;/b&gt;&lt;br&gt;- id: Integer&lt;br&gt;- nombre: String(100)&lt;br&gt;- pais_id: Integer&lt;br&gt;&lt;i&gt;Muchos a 1 con Pais&lt;/i&gt;&lt;br&gt;&lt;i&gt;1 a muchos con Comuna&lt;/i&gt;&lt;br&gt;" style="rounded=1;whiteSpace=wrap;html=1;" parent="1" vertex="1">
          <mxGeometry x="390" y="60" width="160" height="100" as="geometry" />
        </mxCell>
        <mxCell id="Comuna" value="&lt;b&gt;Comuna&lt;/b&gt;&lt;br&gt;- id: Integer&lt;br&gt;- nombre: String(100)&lt;br&gt;- region_id: Integer&lt;br&gt;&lt;i&gt;Muchos a 1 con Region&lt;/i&gt;&lt;br&gt;" style="rounded=1;whiteSpace=wrap;html=1;" parent="1" vertex="1">
          <mxGeometry x="100" y="60" width="160" height="100" as="geometry" />
        </mxCell>
        <mxCell id="Cafeteria" value="&lt;b&gt;Cafeteria&lt;/b&gt;&lt;br&gt;- id: Integer&lt;br&gt;- nombre: String(100)&lt;br&gt;- direccion: String(255)&lt;br&gt;- comuna_id: Integer&lt;br&gt;&lt;i&gt;Muchos a 1 con Comuna&lt;/i&gt;&lt;br&gt;" style="rounded=1;whiteSpace=wrap;html=1;" parent="1" vertex="1">
          <mxGeometry x="100" y="270" width="160" height="100" as="geometry" />
        </mxCell>
        <mxCell id="Usuario" value="&lt;b&gt;Usuario&lt;/b&gt;&lt;br&gt;- id: Integer&lt;br&gt;- nombre: String(100)&lt;br&gt;- apellido_paterno: String(100)&lt;br&gt;- rut: String(12)&lt;br&gt;- rol_id: Integer&lt;br&gt;&lt;i&gt;Muchos a 1 con Rol&lt;/i&gt;&lt;br&gt;&lt;i&gt;Muchos a muchos con Beneficio&lt;/i&gt;&lt;br&gt;" style="rounded=1;whiteSpace=wrap;html=1;" parent="1" vertex="1">
          <mxGeometry x="380" y="395" width="160" height="170" as="geometry" />
        </mxCell>
        <mxCell id="Producto" value="&lt;b&gt;Producto&lt;/b&gt;&lt;br&gt;- id: Integer&lt;br&gt;- nombre: String(100)&lt;br&gt;- precio: Integer&lt;br&gt;- stock: Integer&lt;br&gt;&lt;i&gt;Muchos a 1 con CategoriaProducto&lt;/i&gt;&lt;br&gt;&lt;i&gt;Muchos a muchos con ComboMenu&lt;/i&gt;&lt;br&gt;" style="rounded=1;whiteSpace=wrap;html=1;" parent="1" vertex="1">
          <mxGeometry x="400" y="200" width="160" height="140" as="geometry" />
        </mxCell>
        <mxCell id="Venta" value="&lt;b&gt;Venta&lt;/b&gt;&lt;br&gt;- id: Integer&lt;br&gt;- fecha: Date&lt;br&gt;- monto_total: Integer&lt;br&gt;- estado: String(50)&lt;br&gt;&lt;i&gt;Muchos a 1 con Usuario&lt;/i&gt;&lt;br&gt;&lt;i&gt;1 a muchos con DetalleVenta&lt;/i&gt;&lt;br&gt;" style="rounded=1;whiteSpace=wrap;html=1;" parent="1" vertex="1">
          <mxGeometry x="120" y="430" width="160" height="100" as="geometry" />
        </mxCell>
        <mxCell id="DetalleVenta" value="&lt;b&gt;DetalleVenta&lt;/b&gt;&lt;br&gt;- id: Integer&lt;br&gt;- venta_id: Integer&lt;br&gt;- item_id: Integer&lt;br&gt;- cantidad: Integer&lt;br&gt;&lt;i&gt;Muchos a 1 con Venta&lt;/i&gt;&lt;br&gt;" style="rounded=1;whiteSpace=wrap;html=1;" parent="1" vertex="1">
          <mxGeometry x="120" y="620" width="160" height="100" as="geometry" />
        </mxCell>
        <mxCell id="Pais-Region" style="edgeStyle=orthogonalEdgeStyle;rounded=0;orthogonalLoop=1;" parent="1" source="Pais" target="Region" edge="1">
          <mxGeometry relative="1" as="geometry" />
        </mxCell>
        <mxCell id="Region-Comuna" style="edgeStyle=orthogonalEdgeStyle;rounded=0;orthogonalLoop=1;" parent="1" source="Region" target="Comuna" edge="1">
          <mxGeometry relative="1" as="geometry" />
        </mxCell>
        <mxCell id="Comuna-Cafeteria" style="edgeStyle=orthogonalEdgeStyle;rounded=0;orthogonalLoop=1;" parent="1" source="Comuna" target="Cafeteria" edge="1">
          <mxGeometry relative="1" as="geometry" />
        </mxCell>
        <mxCell id="Usuario-Rol" style="edgeStyle=orthogonalEdgeStyle;rounded=0;orthogonalLoop=1;" parent="1" source="Usuario" edge="1">
          <mxGeometry relative="1" as="geometry" />
        </mxCell>
        <mxCell id="Usuario-Beneficio" style="edgeStyle=orthogonalEdgeStyle;rounded=0;orthogonalLoop=1;" parent="1" source="Usuario" edge="1">
          <mxGeometry relative="1" as="geometry" />
        </mxCell>
        <mxCell id="Producto-CategoriaProducto" style="edgeStyle=orthogonalEdgeStyle;rounded=0;orthogonalLoop=1;" parent="1" source="Producto" edge="1">
          <mxGeometry relative="1" as="geometry" />
        </mxCell>
        <mxCell id="Producto-ComboMenu" style="edgeStyle=orthogonalEdgeStyle;rounded=0;orthogonalLoop=1;" parent="1" source="Producto" edge="1">
          <mxGeometry relative="1" as="geometry" />
        </mxCell>
        <mxCell id="Venta-Usuario" style="edgeStyle=orthogonalEdgeStyle;rounded=0;orthogonalLoop=1;" parent="1" source="Venta" target="Usuario" edge="1">
          <mxGeometry relative="1" as="geometry" />
        </mxCell>
        <mxCell id="Venta-DetalleVenta" style="edgeStyle=orthogonalEdgeStyle;rounded=0;orthogonalLoop=1;" parent="1" source="Venta" target="DetalleVenta" edge="1">
          <mxGeometry relative="1" as="geometry" />
        </mxCell>
      </root>
    </mxGraphModel>
  </diagram>
</mxfile>
